{"accessors" : [{"bufferView" : 0, "byteOffset" : 0, "componentType" : 5123, "count" : 58464, "type" : "SCALAR", "max" : [11649], "min" : [0]}, {"bufferView" : 1, "byteOffset" : 0, "componentType" : 5126, "count" : 11650, "type" : "VEC3", "max" : [0.49886587262153625, 0.4998375177383423, 0.2626328468322754], "min" : [-0.4994523525238037, -0.4992775022983551, -0.258906751871109], "name" : "POSITION"}, {"bufferView" : 1, "byteOffset" : 12, "componentType" : 5126, "count" : 11650, "type" : "VEC3", "max" : [0.9999675750732422, 0.9999849796295166, 0.9999995231628418], "min" : [-1.0000004768371582, -0.999976396560669, -0.9999814033508301], "name" : "NORMAL"}, {"bufferView" : 1, "byteOffset" : 24, "componentType" : 5126, "count" : 11650, "type" : "VEC2", "max" : [0.9995499849319458, 0.999530017375946], "min" : [0.00044999999227002263, 0.00047004222869873047], "name" : "TEXCOORD_0"}, {"bufferView" : 2, "byteOffset" : 0, "componentType" : 5126, "normalized" : false, "count" : 144, "type" : "SCALAR", "max" : [4.766666666666667], "min" : [0]}, {"bufferView" : 3, "componentType" : 5126, "count" : 144, "type" : "VEC3"}, {"bufferView" : 4, "byteOffset" : 0, "componentType" : 5126, "normalized" : false, "count" : 144, "type" : "SCALAR", "max" : [4.766666666666667], "min" : [0]}, {"bufferView" : 5, "componentType" : 5126, "count" : 144, "type" : "VEC4"}, {"bufferView" : 6, "byteOffset" : 0, "componentType" : 5126, "normalized" : false, "count" : 144, "type" : "SCALAR", "max" : [4.766666666666667], "min" : [0]}, {"bufferView" : 7, "componentType" : 5126, "count" : 144, "type" : "VEC4"}, {"bufferView" : 8, "byteOffset" : 0, "componentType" : 5126, "normalized" : false, "count" : 144, "type" : "SCALAR", "max" : [4.766666666666667], "min" : [0]}, {"bufferView" : 9, "componentType" : 5126, "count" : 144, "type" : "VEC4"}, {"bufferView" : 10, "byteOffset" : 0, "componentType" : 5126, "normalized" : false, "count" : 144, "type" : "SCALAR", "max" : [4.766666666666667], "min" : [0]}, {"bufferView" : 11, "componentType" : 5126, "count" : 144, "type" : "VEC4"}, {"bufferView" : 12, "byteOffset" : 0, "componentType" : 5126, "normalized" : false, "count" : 144, "type" : "SCALAR", "max" : [4.766666666666667], "min" : [0]}, {"bufferView" : 13, "componentType" : 5126, "count" : 144, "type" : "VEC4"}, {"bufferView" : 14, "byteOffset" : 0, "componentType" : 5126, "normalized" : false, "count" : 144, "type" : "SCALAR", "max" : [4.766666666666667], "min" : [0]}, {"bufferView" : 15, "componentType" : 5126, "count" : 144, "type" : "VEC4"}, {"bufferView" : 16, "byteOffset" : 0, "componentType" : 5126, "normalized" : false, "count" : 144, "type" : "SCALAR", "max" : [4.766666666666667], "min" : [0]}, {"bufferView" : 17, "componentType" : 5126, "count" : 144, "type" : "VEC4"}, {"bufferView" : 18, "byteOffset" : 0, "componentType" : 5126, "normalized" : false, "count" : 144, "type" : "SCALAR", "max" : [4.766666666666667], "min" : [0]}, {"bufferView" : 19, "componentType" : 5126, "count" : 144, "type" : "VEC4"}, {"bufferView" : 20, "byteOffset" : 0, "componentType" : 5126, "normalized" : false, "count" : 144, "type" : "SCALAR", "max" : [4.766666666666667], "min" : [0]}, {"bufferView" : 21, "componentType" : 5126, "count" : 144, "type" : "VEC4"}, {"bufferView" : 22, "byteOffset" : 0, "componentType" : 5126, "normalized" : false, "count" : 144, "type" : "SCALAR", "max" : [4.766666666666667], "min" : [0]}, {"bufferView" : 23, "componentType" : 5126, "count" : 144, "type" : "VEC4"}, {"bufferView" : 24, "byteOffset" : 0, "componentType" : 5126, "normalized" : false, "count" : 144, "type" : "SCALAR", "max" : [4.766666666666667], "min" : [0]}, {"bufferView" : 25, "componentType" : 5126, "count" : 144, "type" : "VEC4"}, {"bufferView" : 26, "byteOffset" : 0, "componentType" : 5126, "normalized" : false, "count" : 144, "type" : "SCALAR", "max" : [4.766666666666667], "min" : [0]}, {"bufferView" : 27, "componentType" : 5126, "count" : 144, "type" : "VEC4"}, {"bufferView" : 28, "byteOffset" : 0, "componentType" : 5126, "normalized" : false, "count" : 144, "type" : "SCALAR", "max" : [4.766666666666667], "min" : [0]}, {"bufferView" : 29, "componentType" : 5126, "count" : 144, "type" : "VEC4"}, {"bufferView" : 30, "byteOffset" : 0, "componentType" : 5126, "normalized" : false, "count" : 144, "type" : "SCALAR", "max" : [4.766666666666667], "min" : [0]}, {"bufferView" : 31, "componentType" : 5126, "count" : 144, "type" : "VEC4"}, {"bufferView" : 32, "byteOffset" : 0, "componentType" : 5126, "normalized" : false, "count" : 144, "type" : "SCALAR", "max" : [4.766666666666667], "min" : [0]}, {"bufferView" : 33, "componentType" : 5126, "count" : 144, "type" : "VEC4"}, {"bufferView" : 34, "byteOffset" : 0, "componentType" : 5126, "normalized" : false, "count" : 144, "type" : "SCALAR", "max" : [4.766666666666667], "min" : [0]}, {"bufferView" : 35, "componentType" : 5126, "count" : 144, "type" : "VEC4"}, {"bufferView" : 36, "byteOffset" : 0, "componentType" : 5126, "normalized" : false, "count" : 144, "type" : "SCALAR", "max" : [4.766666666666667], "min" : [0]}, {"bufferView" : 37, "componentType" : 5126, "count" : 144, "type" : "VEC4"}, {"bufferView" : 38, "byteOffset" : 0, "componentType" : 5126, "normalized" : false, "count" : 144, "type" : "SCALAR", "max" : [4.766666666666667], "min" : [0]}, {"bufferView" : 39, "componentType" : 5126, "count" : 144, "type" : "VEC4"}, {"bufferView" : 40, "byteOffset" : 0, "componentType" : 5126, "normalized" : false, "count" : 144, "type" : "SCALAR", "max" : [4.766666666666667], "min" : [0]}, {"bufferView" : 41, "componentType" : 5126, "count" : 144, "type" : "VEC4"}, {"bufferView" : 42, "byteOffset" : 0, "componentType" : 5126, "normalized" : false, "count" : 144, "type" : "SCALAR", "max" : [4.766666666666667], "min" : [0]}, {"bufferView" : 43, "componentType" : 5126, "count" : 144, "type" : "VEC4"}, {"bufferView" : 44, "byteOffset" : 0, "componentType" : 5126, "normalized" : false, "count" : 144, "type" : "SCALAR", "max" : [4.766666666666667], "min" : [0]}, {"bufferView" : 45, "componentType" : 5126, "count" : 144, "type" : "VEC4"}, {"bufferView" : 46, "byteOffset" : 0, "componentType" : 5126, "normalized" : false, "count" : 293, "type" : "SCALAR", "max" : [4.7666668863212225], "min" : [0]}, {"bufferView" : 47, "componentType" : 5126, "count" : 293, "type" : "VEC4"}, {"bufferView" : 48, "byteOffset" : 0, "componentType" : 5126, "normalized" : false, "count" : 144, "type" : "SCALAR", "max" : [4.766666666666667], "min" : [0]}, {"bufferView" : 49, "componentType" : 5126, "count" : 144, "type" : "VEC4"}, {"bufferView" : 50, "byteOffset" : 0, "componentType" : 5126, "normalized" : false, "count" : 144, "type" : "SCALAR", "max" : [4.766666666666667], "min" : [0]}, {"bufferView" : 51, "componentType" : 5126, "count" : 144, "type" : "VEC4"}, {"bufferView" : 52, "byteOffset" : 0, "componentType" : 5126, "normalized" : false, "count" : 144, "type" : "SCALAR", "max" : [4.766666666666667], "min" : [0]}, {"bufferView" : 53, "componentType" : 5126, "count" : 144, "type" : "VEC4"}, {"bufferView" : 54, "byteOffset" : 0, "componentType" : 5126, "normalized" : false, "count" : 285, "type" : "SCALAR", "max" : [4.7666668863212225], "min" : [0]}, {"bufferView" : 55, "componentType" : 5126, "count" : 285, "type" : "VEC4"}, {"bufferView" : 56, "byteOffset" : 0, "componentType" : 5126, "normalized" : false, "count" : 144, "type" : "SCALAR", "max" : [4.766666666666667], "min" : [0]}, {"bufferView" : 57, "componentType" : 5126, "count" : 144, "type" : "VEC4"}, {"bufferView" : 58, "byteOffset" : 0, "componentType" : 5126, "normalized" : false, "count" : 144, "type" : "SCALAR", "max" : [4.766666666666667], "min" : [0]}, {"bufferView" : 59, "componentType" : 5126, "count" : 144, "type" : "VEC4"}], "animations" : [{"channels" : [{"sampler" : 0, "target" : {"node" : 6, "path" : "translation"}}, {"sampler" : 1, "target" : {"node" : 6, "path" : "rotation"}}, {"sampler" : 2, "target" : {"node" : 7, "path" : "rotation"}}, {"sampler" : 3, "target" : {"node" : 8, "path" : "rotation"}}, {"sampler" : 4, "target" : {"node" : 9, "path" : "rotation"}}, {"sampler" : 5, "target" : {"node" : 10, "path" : "rotation"}}, {"sampler" : 6, "target" : {"node" : 11, "path" : "rotation"}}, {"sampler" : 7, "target" : {"node" : 12, "path" : "rotation"}}, {"sampler" : 8, "target" : {"node" : 13, "path" : "rotation"}}, {"sampler" : 9, "target" : {"node" : 14, "path" : "rotation"}}, {"sampler" : 10, "target" : {"node" : 15, "path" : "rotation"}}, {"sampler" : 11, "target" : {"node" : 16, "path" : "rotation"}}, {"sampler" : 12, "target" : {"node" : 17, "path" : "rotation"}}, {"sampler" : 13, "target" : {"node" : 18, "path" : "rotation"}}, {"sampler" : 14, "target" : {"node" : 19, "path" : "rotation"}}, {"sampler" : 15, "target" : {"node" : 20, "path" : "rotation"}}, {"sampler" : 16, "target" : {"node" : 21, "path" : "rotation"}}, {"sampler" : 17, "target" : {"node" : 22, "path" : "rotation"}}, {"sampler" : 18, "target" : {"node" : 23, "path" : "rotation"}}, {"sampler" : 19, "target" : {"node" : 24, "path" : "rotation"}}, {"sampler" : 20, "target" : {"node" : 25, "path" : "rotation"}}, {"sampler" : 21, "target" : {"node" : 26, "path" : "rotation"}}, {"sampler" : 22, "target" : {"node" : 27, "path" : "rotation"}}, {"sampler" : 23, "target" : {"node" : 28, "path" : "rotation"}}, {"sampler" : 24, "target" : {"node" : 29, "path" : "rotation"}}, {"sampler" : 25, "target" : {"node" : 30, "path" : "rotation"}}, {"sampler" : 26, "target" : {"node" : 31, "path" : "rotation"}}, {"sampler" : 27, "target" : {"node" : 32, "path" : "rotation"}}, {"sampler" : 28, "target" : {"node" : 33, "path" : "rotation"}}], "samplers" : [{"input" : 4, "interpolation" : "LINEAR", "output" : 5}, {"input" : 6, "interpolation" : "LINEAR", "output" : 7}, {"input" : 8, "interpolation" : "LINEAR", "output" : 9}, {"input" : 10, "interpolation" : "LINEAR", "output" : 11}, {"input" : 12, "interpolation" : "LINEAR", "output" : 13}, {"input" : 14, "interpolation" : "LINEAR", "output" : 15}, {"input" : 16, "interpolation" : "LINEAR", "output" : 17}, {"input" : 18, "interpolation" : "LINEAR", "output" : 19}, {"input" : 20, "interpolation" : "LINEAR", "output" : 21}, {"input" : 22, "interpolation" : "LINEAR", "output" : 23}, {"input" : 24, "interpolation" : "LINEAR", "output" : 25}, {"input" : 26, "interpolation" : "LINEAR", "output" : 27}, {"input" : 28, "interpolation" : "LINEAR", "output" : 29}, {"input" : 30, "interpolation" : "LINEAR", "output" : 31}, {"input" : 32, "interpolation" : "LINEAR", "output" : 33}, {"input" : 34, "interpolation" : "LINEAR", "output" : 35}, {"input" : 36, "interpolation" : "LINEAR", "output" : 37}, {"input" : 38, "interpolation" : "LINEAR", "output" : 39}, {"input" : 40, "interpolation" : "LINEAR", "output" : 41}, {"input" : 42, "interpolation" : "LINEAR", "output" : 43}, {"input" : 44, "interpolation" : "LINEAR", "output" : 45}, {"input" : 46, "interpolation" : "LINEAR", "output" : 47}, {"input" : 48, "interpolation" : "LINEAR", "output" : 49}, {"input" : 50, "interpolation" : "LINEAR", "output" : 51}, {"input" : 52, "interpolation" : "LINEAR", "output" : 53}, {"input" : 54, "interpolation" : "LINEAR", "output" : 55}, {"input" : 56, "interpolation" : "LINEAR", "output" : 57}, {"input" : 58, "interpolation" : "LINEAR", "output" : 59}, {"input" : 60, "interpolation" : "LINEAR", "output" : 61}], "name" : "mixamo.com"}], "asset" : {"generator" : "Aspose.3D 25.3.0", "version" : "2.0"}, "buffers" : [{"uri" : "data:application/octet-stream;base64,", "byteLength" : 578712}], "bufferViews" : [{"buffer" : 0, "byteOffset" : 0, "byteLength" : 116928, "target" : 34963}, {"buffer" : 0, "byteOffset" : 116932, "byteLength" : 372800, "byteStride" : 32, "target" : 34962}, {"buffer" : 0, "byteOffset" : 489736, "byteLength" : 576}, {"buffer" : 0, "byteOffset" : 490316, "byteLength" : 1728}, {"buffer" : 0, "byteOffset" : 492048, "byteLength" : 576}, {"buffer" : 0, "byteOffset" : 492628, "byteLength" : 2304}, {"buffer" : 0, "byteOffset" : 494936, "byteLength" : 576}, {"buffer" : 0, "byteOffset" : 495516, "byteLength" : 2304}, {"buffer" : 0, "byteOffset" : 497824, "byteLength" : 576}, {"buffer" : 0, "byteOffset" : 498404, "byteLength" : 2304}, {"buffer" : 0, "byteOffset" : 500712, "byteLength" : 576}, {"buffer" : 0, "byteOffset" : 501292, "byteLength" : 2304}, {"buffer" : 0, "byteOffset" : 503600, "byteLength" : 576}, {"buffer" : 0, "byteOffset" : 504180, "byteLength" : 2304}, {"buffer" : 0, "byteOffset" : 506488, "byteLength" : 576}, {"buffer" : 0, "byteOffset" : 507068, "byteLength" : 2304}, {"buffer" : 0, "byteOffset" : 509376, "byteLength" : 576}, {"buffer" : 0, "byteOffset" : 509956, "byteLength" : 2304}, {"buffer" : 0, "byteOffset" : 512264, "byteLength" : 576}, {"buffer" : 0, "byteOffset" : 512844, "byteLength" : 2304}, {"buffer" : 0, "byteOffset" : 515152, "byteLength" : 576}, {"buffer" : 0, "byteOffset" : 515732, "byteLength" : 2304}, {"buffer" : 0, "byteOffset" : 518040, "byteLength" : 576}, {"buffer" : 0, "byteOffset" : 518620, "byteLength" : 2304}, {"buffer" : 0, "byteOffset" : 520928, "byteLength" : 576}, {"buffer" : 0, "byteOffset" : 521508, "byteLength" : 2304}, {"buffer" : 0, "byteOffset" : 523816, "byteLength" : 576}, {"buffer" : 0, "byteOffset" : 524396, "byteLength" : 2304}, {"buffer" : 0, "byteOffset" : 526704, "byteLength" : 576}, {"buffer" : 0, "byteOffset" : 527284, "byteLength" : 2304}, {"buffer" : 0, "byteOffset" : 529592, "byteLength" : 576}, {"buffer" : 0, "byteOffset" : 530172, "byteLength" : 2304}, {"buffer" : 0, "byteOffset" : 532480, "byteLength" : 576}, {"buffer" : 0, "byteOffset" : 533060, "byteLength" : 2304}, {"buffer" : 0, "byteOffset" : 535368, "byteLength" : 576}, {"buffer" : 0, "byteOffset" : 535948, "byteLength" : 2304}, {"buffer" : 0, "byteOffset" : 538256, "byteLength" : 576}, {"buffer" : 0, "byteOffset" : 538836, "byteLength" : 2304}, {"buffer" : 0, "byteOffset" : 541144, "byteLength" : 576}, {"buffer" : 0, "byteOffset" : 541724, "byteLength" : 2304}, {"buffer" : 0, "byteOffset" : 544032, "byteLength" : 576}, {"buffer" : 0, "byteOffset" : 544612, "byteLength" : 2304}, {"buffer" : 0, "byteOffset" : 546920, "byteLength" : 576}, {"buffer" : 0, "byteOffset" : 547500, "byteLength" : 2304}, {"buffer" : 0, "byteOffset" : 549808, "byteLength" : 576}, {"buffer" : 0, "byteOffset" : 550388, "byteLength" : 2304}, {"buffer" : 0, "byteOffset" : 552696, "byteLength" : 1172}, {"buffer" : 0, "byteOffset" : 553872, "byteLength" : 4688}, {"buffer" : 0, "byteOffset" : 558564, "byteLength" : 576}, {"buffer" : 0, "byteOffset" : 559144, "byteLength" : 2304}, {"buffer" : 0, "byteOffset" : 561452, "byteLength" : 576}, {"buffer" : 0, "byteOffset" : 562032, "byteLength" : 2304}, {"buffer" : 0, "byteOffset" : 564340, "byteLength" : 576}, {"buffer" : 0, "byteOffset" : 564920, "byteLength" : 2304}, {"buffer" : 0, "byteOffset" : 567228, "byteLength" : 1140}, {"buffer" : 0, "byteOffset" : 568372, "byteLength" : 4560}, {"buffer" : 0, "byteOffset" : 572936, "byteLength" : 576}, {"buffer" : 0, "byteOffset" : 573516, "byteLength" : 2304}, {"buffer" : 0, "byteOffset" : 575824, "byteLength" : 576}, {"buffer" : 0, "byteOffset" : 576404, "byteLength" : 2304}], "cameras" : [{"perspective" : {"aspectRatio" : 1.5, "yfov" : 0.6911112070083618, "zfar" : 10000, "znear" : 10.000000149011612}, "type" : "perspective", "name" : "Camera"}], "images" : [{"uri" : "data:image/png;base64,"}], "materials" : [{"name" : "mat_0", "pbrMetallicRoughness" : {"baseColorFactor" : [1, 1, 1, 1], "baseColorTexture" : {"index" : 0, "texCoord" : 0}, "metallicFactor" : 1, "roughnessFactor" : 1}, "emissiveFactor" : [1, 1, 1], "alphaMode" : "OPAQUE", "doubleSided" : false}], "meshes" : [{"primitives" : [{"attributes" : {"POSITION" : 1, "NORMAL" : 2, "TEXCOORD_0" : 3}, "indices" : 0, "material" : 0, "mode" : 4}], "name" : "geometry_ced02fea_038f_4ed2_93d5_ccb0f09719c0"}], "nodes" : [{"camera" : 0, "matrix" : [-65.15581275167911, -44.527139154551755, -61.417049289096546, 0, -32.401349332924404, 89.5395728270982, -30.542085476036892, 0, 68.59207001076241, 8.666908834403258E-06, -72.76761921184276, 0, 735.88916015625, 495.8309326171875, 692.5791015625, 1], "name" : "Camera"}, {"mesh" : 0, "name" : "node_a4bf3923_f2ad_45e8_86e7_bd66b28d7868_mesh0"}, {"children" : [1], "name" : "node_a4bf3923_f2ad_45e8_86e7_bd66b28d7868"}, {"children" : [2], "name" : "node_7a3b0855_0264_4e83_9703_bdbfbeede01d"}, {"children" : [3], "name" : "node_b4556935_11b7_4ddf_a13b_a6d19ae01d98"}, {"children" : [4], "matrix" : [100, 0, 0, 0, 0, 99.99999999999972, -7.549790126404325E-06, 0, 0, 7.549790126404325E-06, 99.99999999999972, 0, 0, 0, 0, 1], "name" : "node_be1a1989_68d5_48e4_b9e6_8545a49129ed"}, {"rotation" : [0, 0, 0, 1], "scale" : [1, 1, 1], "translation" : [-4.6036057472229, -27.345685958862305, -0.3275656998157501], "name" : "mixamorig:Hips"}, {"rotation" : [0.007813885134643067, 0, 0, 0.9999694711335455], "scale" : [1, 1, 1], "translation" : [0, 5.103410720825195, 0.07976220548152924], "name" : "mixamorig:Spine"}, {"rotation" : [-2.7936265872493894E-09, 0, 0, 1], "scale" : [1, 1, 1], "translation" : [0, 5.954704832480537, 2.1664581517644166E-09], "name" : "mixamorig:Spine1"}, {"rotation" : [1.7347234475192462E-18, 0, 0, 1], "scale" : [1, 1, 1], "translation" : [0, 6.805382265254039, -5.817359857718252E-09], "name" : "mixamorig:Spine2"}, {"rotation" : [-0.007813882341101766, 0, 0, 0.9999694711553747], "scale" : [1, 1, 1], "translation" : [0, 7.656050630852102, -4.736666753268892E-10], "name" : "mixamorig:Neck"}, {"rotation" : [0, 0, 0, 1], "scale" : [1, 1, 1], "translation" : [0, 5.543366551399231, -0.030960597097873688], "name" : "mixamorig:Head"}, {"rotation" : [0.5269877485320585, 0.4586015070855426, -0.5349307776303108, 0.4752027290955005], "scale" : [1, 1, 1], "translation" : [9.661800384521484, 6.378768230048144, 0.0710805538553223], "name" : "mixamorig:LeftShoulder"}, {"rotation" : [-0.48388152921347655, -0.1751695286845379, -0.09952868096755954, 0.8516268804889395], "scale" : [1, 1, 1], "translation" : [2.661842579687601E-09, 19.151293593638783, 2.4584077884526323E-08], "name" : "mixamorig:LeftArm"}, {"rotation" : [0.292290895769701, 0.5182294503150959, 0.25491399158655387, 0.7622487297265044], "scale" : [1, 1, 1], "translation" : [6.096709559422209E-08, 1.8371795440058314, 3.575629037300132E-08], "name" : "mixamorig:LeftForeArm"}, {"rotation" : [0.6658417126525548, -0.2596362478934982, 0.2674901702095333, 0.6462916070265601], "scale" : [1, 1, 1], "translation" : [-8.147254959567363E-08, 7.322397361969799, 1.1994385751279424E-07], "name" : "mixamorig:LeftHand"}, {"rotation" : [0.06676623187055608, 0.004772866539464946, 0.07114433250711145, 0.9952175510806276], "scale" : [1, 1, 1], "translation" : [-8.984669452871685E-09, 23.670179035362274, 1.679288104128318E-07], "name" : "mixamorig:LeftHandIndex1"}, {"rotation" : [1.821459704947227E-17, 0, 0, 1], "scale" : [1, 1, 1], "translation" : [-2.674681454095662E-08, 3.4255571288135798, -1.1267822230820457E-08], "name" : "mixamorig:LeftHandIndex2"}, {"rotation" : [-1.0408340855860841E-17, -7.222237291452131E-35, 6.938893903907226E-18, 1], "scale" : [1, 1, 1], "translation" : [1.098448736315766, 2.160638944422317, 0.09740507039737878], "name" : "mixamorig:LeftHandIndex3"}, {"rotation" : [-0.001028958975471082, -0.9706788488573608, 0.24037491475015868, 0.0011891102680948078], "scale" : [1, 1, 1], "translation" : [-9.661799907684326, 6.377170764659777, -0.031129782238277226], "name" : "mixamorig:RightShoulder"}, {"rotation" : [-0.481392920826971, -0.10141785491268823, -0.05619441555787221, 0.8688023147659631], "scale" : [1, 1, 1], "translation" : [6.8965333444026555E-09, 19.151291192843438, 7.132568491385882E-08], "name" : "mixamorig:RightArm"}, {"rotation" : [0.3339083245844295, -0.9289881462809705, 0.059569695583803865, 0.14811382856005847], "scale" : [1, 1, 1], "translation" : [9.408852030823311E-10, 1.7760870220152327, 1.9928094729948498E-09], "name" : "mixamorig:RightForeArm"}, {"rotation" : [-0.06472139623399459, 0.006387675550660332, -0.09801001125691296, 0.9930580930459214], "scale" : [1, 1, 1], "translation" : [-2.6749022552507995E-08, 7.312244217437584, 1.178995390205273E-08], "name" : "mixamorig:RightHand"}, {"rotation" : [0.10428078000173176, 0.016023489747317664, 0.15102703310815363, 0.982883310454042], "scale" : [1, 1, 1], "translation" : [5.683098436293221E-10, 2.3909862238469017, -8.11224865060467E-10], "name" : "mixamorig:RightHandIndex1"}, {"rotation" : [-2.0469737977209996E-16, 5.551115285594231E-17, -8.673617633740975E-18, 1], "scale" : [1, 1, 1], "translation" : [-5.401221159218039E-08, 2.3699087715638854, 3.787688207523843E-08], "name" : "mixamorig:RightHandIndex2"}, {"rotation" : [-6.938893903907228E-18, -2.7755575615628914E-17, -5.551115123125783E-17, 1], "scale" : [1, 1, 1], "translation" : [0.05086818337458965, 3.3676307789824804, -0.21920824476090672], "name" : "mixamorig:RightHandIndex3"}, {"rotation" : [0.0011088621667224273, 0.03493350290496312, 0.9988151721939336, 0.033862554461926625], "scale" : [1, 1, 1], "translation" : [8.979983806610107, -2.781038284301758, 0.2544671595096588], "name" : "mixamorig:LeftUpLeg"}, {"rotation" : [-0.4334603641263869, 0.556665789220863, 0.426100714379187, 0.5662804014338484], "scale" : [1, 1, 1], "translation" : [-9.599273376181827E-09, 9.262382317949058, 3.449973862146294E-08], "name" : "mixamorig:LeftLeg"}, {"rotation" : [0.4142222919647621, -0.481009961326913, 0.27608370247687897, 0.7216835173193299], "scale" : [1, 1, 1], "translation" : [1.44567882109925E-08, 10.65460613328186, 2.700076606743096E-07], "name" : "mixamorig:LeftFoot"}, {"rotation" : [-3.083432674454296E-08, 0.7432377232612811, -0.6690274185124152, 7.403704970048039E-09], "scale" : [1, 1, 1], "translation" : [-6.136275487733656E-08, 9.352187000456293, -1.1010212830342425E-07], "name" : "mixamorig:LeftToeBase"}, {"rotation" : [-0.0013210927711705068, 0.04169205876908055, -0.998557987472139, 0.03379308516659914], "scale" : [1, 1, 1], "translation" : [-8.979984760284424, -2.781038284301758, 0.3044481575489044], "name" : "mixamorig:RightUpLeg"}, {"rotation" : [0.4335548769244614, 0.556523545730038, -0.42594752298894506, 0.5664630785873546], "scale" : [1, 1, 1], "translation" : [-1.0804676264797308E-08, 9.270834161351143, -1.0287927842966837E-08], "name" : "mixamorig:RightLeg"}, {"rotation" : [-4.087321763810389E-09, 0.8244052669953752, -0.5659999609101438, 1.2325726552520665E-09], "scale" : [1, 1, 1], "translation" : [3.871907239272332E-09, 10.654863161319046, -4.945448495163873E-10], "name" : "mixamorig:RightFoot"}, {"rotation" : [-2.1186416376427598E-08, 0.9869429527797166, -0.16107019574848072, 8.593971673442114E-09], "scale" : [1, 1, 1], "translation" : [-9.038060966304329E-09, 5.599681495829685, -5.9297735610641666E-08], "name" : "mixamorig:RightToeBase"}], "samplers" : [{"magFilter" : 9729, "minFilter" : 9729, "wrapS" : 10497, "wrapT" : 10497}], "scene" : 0, "scenes" : [{"nodes" : [0, 5]}], "textures" : [{"sampler" : 0, "source" : 0, "name" : "base_color_texture"}]}